<?xml version="1.0" encoding="UTF-8" standalone="no"?>
<!DOCTYPE svg PUBLIC "-//W3C//DTD SVG 1.1//EN" "http://www.w3.org/Graphics/SVG/1.1/DTD/svg11.dtd">
<svg width="100%" height="100%" viewBox="0 0 95 137" version="1.1" xmlns="http://www.w3.org/2000/svg" xmlns:xlink="http://www.w3.org/1999/xlink" xml:space="preserve" xmlns:serif="http://www.serif.com/" style="fill-rule:evenodd;clip-rule:evenodd;stroke-linejoin:round;stroke-miterlimit:2;">
    <g transform="matrix(1,0,0,1,-479,-64)">
        <g transform="matrix(1,0,0,1,1.11623,-281.617)">
            <path d="M501.984,355.645C501.976,353.414 502.662,351.2 503.813,349.412L507.781,353.205C506.7,354.99 505.549,356.568 503.93,357.493L501.962,355.759L501.984,355.645ZM514.637,350.944C516.169,352.697 517.856,354.814 518.744,357.203C519.511,359.275 519.195,363.25 518.115,365.319C516.565,367.195 515.163,369.184 513.916,371.265C513.807,369.678 513.455,368.096 512.718,366.611C511.504,364.164 509.452,362.357 507.641,360.762L506.145,359.443C508.356,357.869 509.736,355.508 511.07,353.208C511.62,352.257 512.169,351.306 512.78,350.425C512.986,350.125 513.135,349.956 513.215,349.917C513.312,349.87 513.836,350.03 514.637,350.944ZM516.084,402.573C514.249,404.524 512.543,405.881 510.839,406.745C511.018,405.757 511.156,404.765 511.264,403.769C517.318,398.556 521.655,391.492 523.485,383.708C524.363,379.994 524.759,375.8 524.738,370.515C524.727,367.933 524.606,365.334 524.415,362.762L524.422,362.754C529.205,376.196 525.862,392.183 516.084,402.573ZM499.884,401.329C498.88,400.632 497.854,399.956 496.828,399.28C493.838,397.312 491.016,395.457 488.666,393.019C482.971,387.112 480.355,377.674 481.487,367.124C481.618,365.904 481.957,365.444 482.101,365.414C482.296,365.371 482.819,365.613 483.07,365.729L489.813,368.856C493.185,370.419 496.659,372.031 499.429,374.446C499.784,374.755 500.127,375.078 500.459,375.417C502,376.993 503.373,379.026 504.655,381.632C508.755,389.98 509.761,399.644 507.545,408.636C505.7,405.763 503.089,403.561 499.884,401.329ZM495.579,355.37C494.07,358.134 494.154,361.553 494.405,365.104C494.47,366.038 494.552,367.103 494.831,368.124C493.538,367.465 492.244,366.86 491.004,366.285L488.906,365.313C489.266,361.362 492.478,357.993 495.579,355.37ZM495.727,368.591C495.284,367.455 495.188,366.157 495.11,365.054C494.858,361.469 494.776,358.03 496.393,355.375C496.987,358.732 498.494,361.366 500.085,364.144C500.577,365.002 501.084,365.886 501.581,366.82C503.197,369.86 504.786,373.313 505.186,376.851C504.338,375.56 503.445,374.417 502.484,373.435C500.511,371.412 498.141,369.881 495.727,368.591ZM519.815,376.523C519.43,378.274 519.039,380.044 518.625,381.842C517.099,388.458 514.935,396.457 511.427,401.919C511.701,397.693 511.345,393.437 510.375,389.313L510.38,389.299C510.818,386.379 511.551,383.522 512.541,380.764L512.552,380.739L512.563,380.7C514.748,374.634 518.211,369.062 522.728,364.417C521.604,368.448 520.724,372.396 519.815,376.523ZM523.768,363.386C523.932,365.755 524.02,368.146 524.03,370.519C524.051,375.746 523.659,379.887 522.797,383.546C521.145,390.57 517.431,397.016 512.224,401.984C515.675,396.439 517.805,388.547 519.317,382.001C519.732,380.203 520.12,378.429 520.508,376.676C521.504,372.15 522.453,367.846 523.74,363.413L523.768,363.386ZM505.766,362.887C507.461,364.379 509.213,365.923 510.18,367.871C511.881,371.298 511.001,375.51 509.845,379.893C509.396,381.155 508.998,382.436 508.655,383.734C508.216,382.6 507.736,381.479 507.198,380.384C506.799,379.572 506.387,378.821 505.966,378.103C505.854,373.985 504.057,369.968 502.207,366.489C501.706,365.548 501.197,364.658 500.7,363.792C499.078,360.959 497.67,358.471 497.105,355.256L505.766,362.887ZM496.059,429.525C492.424,426.342 489.367,422.374 486.448,418.517C485.598,417.394 484.71,416.193 483.929,414.933C484.597,415.722 485.252,416.538 485.892,417.352C486.889,418.621 487.92,419.933 488.976,421.045C492.171,424.408 495.554,427.667 499.032,430.726L499.184,430.859C501.116,432.543 503.2,434.043 505.486,434.332C504.447,434.775 501.922,434.57 496.059,429.525ZM502.111,427.451L502.114,427.453L502.448,427.797C503.485,428.866 506.107,431.585 506.232,433.219C506.187,433.371 506.168,433.522 506.174,433.676C503.838,433.637 501.665,432.082 499.65,430.325L499.501,430.196C496.038,427.148 492.669,423.904 489.49,420.557C488.457,419.468 487.481,418.229 486.45,416.915C485.317,415.473 484.156,414.016 482.903,412.749C490.189,415.478 496.165,421.249 502.111,427.451ZM536.192,409.702C537.221,409.221 538.283,408.723 539.297,408.091C540.152,407.557 540.961,406.917 541.723,406.2C547.594,404.082 553.617,402.305 559.689,400.951C561.725,400.496 563.837,400.11 565.832,400.34C566.982,400.751 568.106,401.235 569.184,401.813C569.01,402.095 568.82,402.37 568.63,402.645C561.842,406.328 554.573,408.95 546.978,410.422C544.373,410.927 541.237,411.366 538.119,411.069C537.406,410.628 536.69,410.196 535.954,409.815L536.192,409.702ZM533.311,407.797L533.309,407.795C533.353,404.331 535.238,401.174 537.233,397.838C537.629,397.177 538.023,396.519 538.399,395.861C541.27,390.854 543.293,385.479 544.437,379.855C545.466,381.481 545.918,383.952 545.786,387.24C545.614,391.556 545.029,394.888 543.949,397.731C542.627,401.21 540.442,404.036 537.795,405.687C536.928,406.231 535.987,406.67 534.992,407.137C534.472,407.379 533.943,407.628 533.416,407.896L533.311,407.797ZM563.481,399.616C562.133,399.72 560.793,399.979 559.536,400.259C553.901,401.515 548.308,403.127 542.839,405.04C543.729,404.031 544.536,402.905 545.23,401.667L545.276,401.654C550.823,398.75 557.432,398.09 563.481,399.616ZM556.41,412.013C553.557,412.538 550.66,413.02 547.739,413.322C546.091,413.494 544.371,413.602 542.686,413.433C541.696,413.12 540.769,412.749 540.017,412.348C539.79,412.186 539.565,412.02 539.335,411.864C542.101,411.961 544.813,411.564 547.114,411.117C554.287,409.728 561.175,407.324 567.644,403.973C564.935,407.317 561.076,410.066 556.41,412.013ZM564.409,421.068L564.285,421.063C562.991,420.993 561.651,420.695 560.352,420.407L545.639,417.15L545.521,417.148L545.348,416.974C546.968,417.226 548.504,417.273 549.675,417.031C554.053,416.124 558.034,414.634 561.482,412.678C563.762,414.723 564.849,417.874 564.409,421.068ZM551.149,430.428C551.534,431.233 552.697,433.941 551.501,434.972C550.486,435.845 548.431,434.935 547.594,434.501C539.219,430.169 533.295,421.295 532.514,411.891C532.496,411.668 532.501,411.476 532.504,411.33C534.002,411.953 535.457,412.717 536.865,413.604L536.951,413.682C537.4,414.073 537.971,414.447 538.617,414.798C543.667,418.472 547.997,423.828 551.149,430.428ZM552.53,413.394C551.419,413.723 550.276,414.011 549.1,414.255C548.291,414.422 547.145,414.379 545.897,414.188C546.543,414.15 547.184,414.094 547.813,414.029C549.396,413.864 550.966,413.639 552.53,413.394ZM517.784,442.256L520.388,441.268C518.931,442.167 517.432,443.004 515.959,443.815C514.393,444.679 512.774,445.569 511.234,446.535C509.613,447.548 508.196,448.92 506.828,450.25C506.457,450.61 506.081,450.955 505.708,451.306C505.981,449.756 507.928,447.447 509.368,446.364C511.833,444.509 514.859,443.363 517.784,442.256ZM506.596,451.459C506.839,451.227 507.08,450.993 507.322,450.757C508.663,449.455 510.051,448.107 511.607,447.135C513.133,446.181 514.742,445.294 516.301,444.437C518.107,443.442 519.96,442.423 521.726,441.271C517.664,445.897 512.414,449.438 506.596,451.459ZM515.882,449.121C512.463,451.552 507.999,453.576 506.449,452.756C506.22,452.634 506.074,452.513 505.959,452.394C512.039,450.454 517.546,446.898 521.833,442.182C520.508,444.868 518.466,447.285 515.882,449.121ZM498.1,352.356C497.934,352.218 497.622,351.931 497.181,351.785C495.973,351.38 494.975,352.193 494.65,352.46C491.103,355.339 487.1,359.184 486.217,364.065L484.262,363.158C483.608,362.855 482.622,362.399 481.496,362.646C480.386,362.887 478.995,363.81 478.668,366.82C477.445,378.207 480.346,388.473 486.628,394.987C489.195,397.655 492.287,399.684 495.27,401.648C496.276,402.31 497.282,402.97 498.266,403.656C502.155,406.364 505.05,408.972 506.543,412.923L506.581,413.026C508.468,418.109 508.789,423.747 507.564,429.421C506.698,428.176 505.582,426.958 504.48,425.824L504.156,425.489L504.158,425.49C497.194,418.227 490.178,411.519 480.914,409.146C480.445,409.026 479.946,409.152 479.594,409.484C479.241,409.813 479.08,410.3 479.169,410.776C479.859,414.503 482.159,417.544 484.188,420.225C487.153,424.143 490.216,428.192 494.04,431.524L494.209,431.672C497.378,434.398 501.742,437.687 505.289,437.273C504.408,440.02 503.529,442.848 503,445.76C500.717,458.312 505.609,472.063 515.219,480.442C515.568,480.746 515.925,481.044 516.286,481.333C516.896,481.824 517.788,481.725 518.279,481.116C518.768,480.503 518.714,479.589 518.059,479.124C510.912,473.392 506.353,464.529 505.443,455.39C509.222,456.979 515.61,452.791 517.524,451.431C522.033,448.227 525.146,443.468 526.071,438.381C526.162,437.877 525.982,437.355 525.583,437.038C525.191,436.713 524.653,436.622 524.176,436.803L516.78,439.606C513.668,440.783 510.454,442.002 507.665,444.098L507.664,444.099C507.248,444.412 506.598,444.978 505.908,445.707C506.464,442.905 507.351,440.112 508.222,437.404C508.71,435.886 509.184,434.364 509.621,432.831C512.057,428.431 514.823,423.91 518.362,419.94C521.799,416.091 525.667,413.192 529.671,411.45C529.665,411.667 529.671,411.893 529.69,412.124C530.549,422.478 537.057,432.245 546.293,437.021C549.185,438.512 551.691,438.548 553.352,437.119C555.241,435.491 555.367,432.681 553.705,429.206C552.219,426.094 550.47,423.252 548.525,420.691L559.739,423.173C561.147,423.487 562.603,423.809 564.13,423.894C564.557,423.917 565.692,423.98 566.487,423.153C567.058,422.573 567.175,421.82 567.224,421.502C567.808,417.792 566.551,413.86 563.947,411.135C567.601,408.615 570.492,405.506 572.37,401.949C572.72,401.291 572.479,400.472 571.858,400.081C564.467,395.555 554.994,394.773 546.915,397.831C547.904,394.904 548.45,391.545 548.617,387.353C548.853,381.524 547.375,377.623 544.22,375.784C543.815,375.546 543.318,375.526 542.894,375.727C542.47,375.93 542.174,376.329 542.104,376.793C541.155,383.031 539.08,388.973 535.941,394.452C535.572,395.094 535.187,395.737 534.802,396.385C532.649,399.983 530.425,403.706 530.477,408.058L530.477,408.092C525.406,409.861 520.5,413.291 516.249,418.053C514.306,420.231 512.602,422.553 511.052,424.918C511.329,420.614 510.785,416.395 509.391,412.46C509.648,411.684 509.875,410.9 510.085,410.112C512.815,409.227 515.388,407.448 518.149,404.516C528.667,393.337 532.243,376.119 527.047,361.676C526.896,361.252 526.481,360.123 525.349,359.754C523.979,359.308 522.893,360.309 522.537,360.638C522.339,360.821 522.151,361.012 521.956,361.197C522.067,359.375 521.901,357.566 521.401,356.219C520.354,353.398 518.472,351.026 516.771,349.078C514.643,346.649 512.886,346.947 512.025,347.346C511.301,347.683 510.841,348.249 510.45,348.81C510.032,349.415 509.642,350.052 509.26,350.698L505.637,347.235C504.4,346.019 503.303,346.262 502.787,346.521C502.329,346.748 502.063,347.099 501.908,347.297C500.565,349.101 499.678,351.224 499.324,353.435L498.1,352.356Z" style="fill:white;fill-rule:nonzero;"/>
        </g>
    </g>
</svg>
